<svg xmlns="http://www.w3.org/2000/svg" viewBox="0 0 512 512">
  <defs>
    <linearGradient id="g" x1="0" y1="1" x2="0.6" y2="0">
      <stop offset="0" stop-color="#e8641c"/>
      <stop offset="0.55" stop-color="#ff8a3d"/>
      <stop offset="1" stop-color="#ffc078"/>
    </linearGradient>
  </defs>
  <rect width="512" height="512" rx="116" fill="#0c0e12"/>
  <path fill="url(#g)" d="M256 88c10 58-64 92-64 168a64 64 0 0 0 128 0c0-26-11-47-22-64 44 36 82 78 82 140a124 124 0 0 1-248 0c0-84 56-120 80-168 12-24 14-50 8-76 12 0 24 0 36 0z" transform="translate(0 8)"/>
  <circle cx="256" cy="392" r="26" fill="#0c0e12"/>
  <circle cx="256" cy="392" r="14" fill="#ffc078"/>
</svg>
